#!OML:ASF E:/inclinewalkrobotboard/Project1/Captureday1/Session1/subject1.ASF
:FULLY-SPECIFIED
:DEGREES
101
root 0 0 0 -1.746242609793741 -2.5433276670096063 -3.002907350779105
lowerback 10.03434537682926 0.7899208830801194 0.8480702144643832
upperback 0.07707639956048068 1.2122897814230298 1.22167263360617
thorax -5.502602679500709 0.5770562516820814 0.6151569407624469
lowerneck -14.07167092423334 -2.8735788098236 -1.1019577719818043
upperneck 16.552254691866313 -3.8707346993633074 1.346789741873033
head 7.661757298965469 -1.8257697669191777 0.224798361174674
rclavicle -1.8815410132672896E-16 -9.086221226695001E-17
rhumerus -19.791271284387523 -7.453836835545579 -67.5500001746939
rradius 60.09626931954318
rwrist -7.937156924784116
rhand -13.419679238306394 -8.466128838022856
rfingers 7.125019999999866
rthumb 12.713322761268158 -37.7141065722387
lclavicle -8.084263842613182E-16 -3.830412813064265E-16
lhumerus -39.62480545264141 0.24977413931904965 83.28408148412774
lradius 38.28030914383477
lwrist 2.696519334848557
lhand -19.424926915780507 0.8256184839910876
lfingers 7.1250199999998785
lthumb 6.795224312592888 30.333963732679486
rfemur -9.192325687622187 1.9948990126489063 14.088384464223026
rtibia 27.91153263159108
rfoot -1.2999257575901062 -3.2769665346919568
rtoes 3.4001485501062
lfemur 0.7044449223279834 -4.245477186022686 -20.152747104150535
ltibia 18.92174111352643
lfoot -18.5248523701179 4.65907416045047
ltoes -23.59222473733745
102
root 0 0 0 -1.9609223637400266 -0.9549589966961352 -0.41261884078156763
lowerback 10.048803644094933 -0.2698396142012003 -1.875644167885146
upperback 0.18517952507153718 -0.5111892215095319 1.1916017700533037
thorax -5.414355629512272 -0.21130325934285632 2.3653643689564987
lowerneck -14.238515937794299 -2.607548978936636 -1.3518915619147627
upperneck 16.83864992415222 -3.3945335656702254 1.1467214661361829
head 7.762636351601139 -1.6369751685750225 0.2487021271506496
rclavicle -2.019790539056966E-16 -9.893127410653019E-17
rhumerus -19.961255206568254 -7.6482167365347085 -67.73303375646229
rradius 59.51452983157297
rwrist -7.725941255600236
rhand -13.499489739225165 -7.909398306482068
rfingers 7.12501999999987
rthumb 12.635567260307363 -37.16788541902224
lclavicle -7.744243034012733E-16 -3.693409736448999E-16
lhumerus -39.399249928202124 0.22227158057526739 83.26639005322635
lradius 38.009930964851115
lwrist 2.794695641826795
lhand -19.646603842501786 1.4999252619367116
lfingers 7.125019999999882
lthumb 6.586353282385559 31.016587739481857
rfemur -9.72731046132387 1.8158514834224309 13.769122726298107
rtibia 28.700156649729628
rfoot -0.7424320889895335 -3.268856582635676
rtoes 3.6255729819254676
lfemur 1.2190678586796313 -4.245270398759497 -20.582948775011637
ltibia 18.72684127002733
lfoot -18.411467292647615 4.401828067334433
ltoes -22.716531905537394
103
root 0 0 0 -2.1281949573488657 -0.3926110040220343 0.61014259731598
lowerback 10.102121675688357 -0.6919324310494834 -2.856152557278537
upperback 0.25895008008901826 -1.1886940870402714 1.2275327501307944
thorax -5.355291593753458 -0.5199397532067326 3.052493372730316
lowerneck -14.59746974373314 -2.531401508324047 -1.543420567108742
upperneck 17.22721523747155 -3.2230562605362705 1.007306614328604
head 7.9513305143012225 -1.5734978856750115 0.24353763437128365
rclavicle -2.0193477272675512E-16 -1.0626289224512224E-16
rhumerus -20.01269712884492 -7.696282468739549 -67.77391674330804
rradius 59.38295181536216
rwrist -7.668793560516398
rhand -13.515910090339037 -7.786057261110605
rfingers 7.12501999999987
rthumb 12.619728721197857 -37.04741564460637
lclavicle -7.499858271569605E-16 -3.7076940314935506E-16
lhumerus -39.34482463084981 0.20043904022956546 83.2650241088833
lradius 37.98179966301207
lwrist 2.819602307531752
lhand -19.68604182315404 1.6162887776443284
lfingers 7.125019999999883
lthumb 6.549407881449934 31.135726078222028
rfemur -10.10698805481326 1.656459075577477 13.487746584569525
rtibia 29.403683487384093
rfoot -0.20786366347692553 -3.2225326046622547
rtoes 3.883050414946285
lfemur 1.2472336361936822 -4.1460222076213915 -20.792015171530394
ltibia 19.247128727924533
lfoot -17.965470927268846 3.977983000733065
ltoes -21.748457073040747
104
root 0 0 0 -2.2309916932007825 -0.29655069188685457 0.8549860598869228
lowerback 10.152736287484085 -0.8040004405193757 -3.0249826590793636
upperback 0.3041914870767715 -1.3597065587183885 1.275708484071946
thorax -5.322730812216093 -0.5959978330971881 3.221073011289387
lowerneck -14.908583185368173 -2.531812215402976 -1.6594732024922825
upperneck 17.575464999254226 -3.1879822545116094 0.9206938949007182
head 8.106611867924492 -1.56486281720241 0.2287670398847278
rclavicle -1.8734351081041797E-16 -1.0270627758608603E-16
rhumerus -19.882574750799908 -7.539416360458487 -67.61361853065502
rradius 59.87339862959827
rwrist -7.836473463411342
rhand -13.445501635034617 -8.26112493367283
rfingers 7.125019999999867
rthumb 12.687629730663465 -37.51107804649773
lclavicle -7.357021702992306E-16 -3.661167377868406E-16
lhumerus -39.3762793571445 0.17919486038820653 83.26867885673069
lradius 38.0777021957477
lwrist 2.8120750227462947
lhand -19.6384574579843 1.4657809286870442
lfingers 7.125019999999881
lthumb 6.594821011870463 30.979524443151625
rfemur -10.594280908615229 1.7166559607626795 13.963544258127595
rtibia 30.464740172905792
rfoot -0.21612764827764308 -3.3679892898487545
rtoes 4.130283981513802
lfemur 0.07859185274037817 -3.7813465724893676 -20.53813312100069
ltibia 21.62446738767762
lfoot -16.53507551270163 3.002453926174862
ltoes -20.15607731706331
